<svg width="195" height="154" viewBox="0 0 195 154" fill="none" xmlns="http://www.w3.org/2000/svg">
<path d="M47.4869 126.219L4.91543 96.9508C1.07218 90.4468 -2.00243 79.0353 16.4452 85.421C34.8928 91.8067 53.4405 106.655 54.5821 106.707C55.7238 106.759 43.4199 93.4031 41.2786 85.421C39.1372 77.4389 38.8726 54.4313 39.5048 52.6055C40.1369 50.7798 55.469 8.79243 83.85 3.82576C112.231 -1.1409 121.1 5.59957 121.1 5.59957C137.656 14.4686 167.751 41.2532 155.689 77.4389C140.612 122.671 136.81 107.542 138.838 112.028C140.867 116.515 170.512 88.0298 172.54 87.1949C174.569 86.3599 203.937 76.3745 187.618 96.9508C171.299 117.527 158.941 123.854 154.802 124.445" stroke="black" stroke-width="4"/>
<path d="M74.0844 57.0763C73.4485 58.3642 72.3856 59.3917 71.077 59.9837C69.7684 60.5758 68.2949 60.6958 66.9078 60.3233C65.5206 59.9508 64.3055 59.1088 63.4695 57.9408C62.6335 56.7729 62.2283 55.3512 62.323 53.918C62.4178 52.4848 63.0065 51.1287 63.9889 50.0809C64.9714 49.0332 66.2867 48.3584 67.7109 48.1717C69.135 47.985 70.5798 48.2979 71.7992 49.0571C73.0185 49.8162 73.9369 50.9746 74.3978 52.335L68.5179 54.3274L74.0844 57.0763Z" fill="black"/>
<path d="M123.751 51.7549C123.115 53.0427 122.052 54.0702 120.744 54.6623C119.435 55.2544 117.962 55.3744 116.574 55.0019C115.187 54.6294 113.972 53.7874 113.136 52.6194C112.3 51.4514 111.895 50.0297 111.99 48.5965C112.084 47.1633 112.673 45.8073 113.656 44.7595C114.638 43.7117 115.953 43.037 117.378 42.8503C118.802 42.6636 120.247 42.9765 121.466 43.7356C122.685 44.4948 123.604 45.6532 124.064 47.0136L118.185 49.006L123.751 51.7549Z" fill="black"/>
<path d="M88.0298 62.3095C89.5079 66.4484 91.5774 72.4202 95.125 70.2917C99.5595 67.631 100.446 63.1964 99.5595 61.4226" stroke="black" stroke-width="2"/>
<path d="M109.315 110.202C109.315 110.202 101.333 109.315 96.8989 120.845C77.387 103.994 75.6131 120.845 77.387 124.393C80.0795 129.778 90.3949 143.905 99.5596 151C105.768 143.905 117.255 128.968 118.185 127.054C119.266 124.826 119.234 119.567 118.185 117.298C116.166 112.911 112.511 110.187 108.963 110.187" stroke="black" stroke-width="3"/>
</svg>
